<?xml version="1.0" encoding="iso-8859-1"?>
<!-- Generator: Adobe Illustrator 19.0.0, SVG Export Plug-In . SVG Version: 6.00 Build 0)  -->
<svg version="1.1" id="Layer_1" xmlns="http://www.w3.org/2000/svg" xmlns:xlink="http://www.w3.org/1999/xlink" x="0px" y="0px"
	 viewBox="0 0 503.467 503.467" style="enable-background:new 0 0 503.467 503.467;" xml:space="preserve">
<g transform="translate(3 1)">
	<path style="fill:#7EE1E6;" d="M445,344.6c20.48,15.36,34.133,40.107,34.133,68.267c0,46.933-38.4,85.333-85.333,85.333
		c-28.16,0-52.907-13.653-68.267-34.133c-11.093-14.507-17.067-32.427-17.067-51.2c0-46.933,38.4-85.333,85.333-85.333
		c5.973,0,11.093,0.853,17.067,1.707C423.667,331.8,434.76,336.92,445,344.6"/>
	<path style="fill:#FFD0A1;" d="M445,71.533V344.6c-10.24-7.68-21.333-12.8-34.133-15.36v-1.707v-256h-85.333V37.4h85.333
		C427.933,37.4,445,54.467,445,71.533z M393.8,498.2H52.467c-17.067,0-34.133-17.067-34.133-34.133V71.533
		C18.333,54.467,35.4,37.4,52.467,37.4H137.8v34.133H52.467v366.933c0,14.507,11.093,25.6,25.6,25.6h247.467
		C340.893,484.547,365.64,498.2,393.8,498.2z"/>
	<path style="fill:#F2EDDA;" d="M410.867,327.533v1.707c-5.12-0.853-11.093-1.707-17.067-1.707c-46.933,0-85.333,38.4-85.333,85.333
		c0,19.627,6.827,36.693,17.067,51.2H78.067c-14.507,0-25.6-11.093-25.6-25.6V71.533H137.8V88.6h187.733V71.533h85.333V327.533z"/>
	<path style="fill:#AAB1BA;" d="M240.2,45.933c0-4.267-3.413-8.533-8.533-8.533c-5.12,0-8.533,4.267-8.533,8.533
		s3.413,8.533,8.533,8.533C236.787,54.467,240.2,50.2,240.2,45.933L240.2,45.933z M325.533,71.533V88.6H137.8V71.533V37.4h52.053
		c4.267-19.627,21.333-34.133,41.813-34.133S269.213,17.773,273.48,37.4h52.053V71.533z"/>
</g>
<path style="fill:#51565F;" d="M396.8,503.467c-49.493,0-89.6-40.107-89.6-89.6s40.107-89.6,89.6-89.6s89.6,40.107,89.6,89.6
	S446.293,503.467,396.8,503.467z M396.8,332.8c-44.373,0-81.067,36.693-81.067,81.067s36.693,81.067,81.067,81.067
	s81.067-36.693,81.067-81.067S441.173,332.8,396.8,332.8z M294.4,503.467H55.467c-19.627,0-38.4-18.773-38.4-38.4V72.533
	c0-19.627,18.773-38.4,38.4-38.4h51.2c2.56,0,4.267,1.707,4.267,4.267s-1.707,4.267-4.267,4.267h-51.2
	c-14.507,0-29.867,15.36-29.867,29.867v392.533c0,14.507,15.36,29.867,29.867,29.867H294.4c2.56,0,4.267,1.707,4.267,4.267
	C298.667,501.76,296.96,503.467,294.4,503.467z M277.333,469.333H81.067c-16.213,0-29.867-13.653-29.867-29.867V72.533
	c0-2.56,1.707-4.267,4.267-4.267h51.2c2.56,0,4.267,1.707,4.267,4.267c0,2.56-1.707,4.267-4.267,4.267H59.733v362.667
	c0,11.947,9.387,21.333,21.333,21.333h196.267c2.56,0,4.267,1.707,4.267,4.267C281.6,467.627,279.893,469.333,277.333,469.333z
	 M388.267,443.733c-0.853,0-2.56,0-3.413-0.853l-25.6-25.6c-1.707-1.707-1.707-4.267,0-5.973c1.707-1.707,4.267-1.707,5.973,0
	l22.187,22.187l39.253-39.253c1.707-1.707,4.267-1.707,5.973,0c1.707,1.707,1.707,4.267,0,5.973l-42.667,42.667
	C390.827,443.733,389.12,443.733,388.267,443.733z M260.267,384H192c-2.56,0-4.267-1.707-4.267-4.267
	c0-2.56,1.707-4.267,4.267-4.267h68.267c2.56,0,4.267,1.707,4.267,4.267C264.533,382.293,262.827,384,260.267,384z M140.8,384
	h-17.067c-2.56,0-4.267-1.707-4.267-4.267c0-2.56,1.707-4.267,4.267-4.267H140.8c2.56,0,4.267,1.707,4.267,4.267
	C145.067,382.293,143.36,384,140.8,384z M294.4,332.8H192c-2.56,0-4.267-1.707-4.267-4.267c0-2.56,1.707-4.267,4.267-4.267h102.4
	c2.56,0,4.267,1.707,4.267,4.267C298.667,331.093,296.96,332.8,294.4,332.8z M140.8,332.8h-17.067c-2.56,0-4.267-1.707-4.267-4.267
	c0-2.56,1.707-4.267,4.267-4.267H140.8c2.56,0,4.267,1.707,4.267,4.267C145.067,331.093,143.36,332.8,140.8,332.8z M448,298.667
	c-2.56,0-4.267-1.707-4.267-4.267V72.533c0-14.507-15.36-29.867-29.867-29.867h-51.2c-2.56,0-4.267-1.707-4.267-4.267
	s1.707-4.267,4.267-4.267h51.2c19.627,0,38.4,18.773,38.4,38.4V294.4C452.267,296.96,450.56,298.667,448,298.667z M413.867,298.667
	c-2.56,0-4.267-1.707-4.267-4.267V76.8h-46.933c-2.56,0-4.267-1.707-4.267-4.267c0-2.56,1.707-4.267,4.267-4.267h51.2
	c2.56,0,4.267,1.707,4.267,4.267V294.4C418.133,296.96,416.427,298.667,413.867,298.667z M345.6,281.6H192
	c-2.56,0-4.267-1.707-4.267-4.267s1.707-4.267,4.267-4.267h153.6c2.56,0,4.267,1.707,4.267,4.267S348.16,281.6,345.6,281.6z
	 M140.8,281.6h-17.067c-2.56,0-4.267-1.707-4.267-4.267s1.707-4.267,4.267-4.267H140.8c2.56,0,4.267,1.707,4.267,4.267
	S143.36,281.6,140.8,281.6z M311.467,230.4H192c-2.56,0-4.267-1.707-4.267-4.267s1.707-4.267,4.267-4.267h119.467
	c2.56,0,4.267,1.707,4.267,4.267S314.027,230.4,311.467,230.4z M140.8,230.4h-17.067c-2.56,0-4.267-1.707-4.267-4.267
	s1.707-4.267,4.267-4.267H140.8c2.56,0,4.267,1.707,4.267,4.267S143.36,230.4,140.8,230.4z M328.533,179.2H192
	c-2.56,0-4.267-1.707-4.267-4.267c0-2.56,1.707-4.267,4.267-4.267h136.533c2.56,0,4.267,1.707,4.267,4.267
	C332.8,177.493,331.093,179.2,328.533,179.2z M140.8,179.2h-17.067c-2.56,0-4.267-1.707-4.267-4.267c0-2.56,1.707-4.267,4.267-4.267
	H140.8c2.56,0,4.267,1.707,4.267,4.267C145.067,177.493,143.36,179.2,140.8,179.2z M328.533,93.867H140.8
	c-2.56,0-4.267-1.707-4.267-4.267V38.4c0-2.56,1.707-4.267,4.267-4.267h48.64C195.413,14.507,213.333,0,234.667,0
	s39.253,14.507,45.227,34.133h48.64c2.56,0,4.267,1.707,4.267,4.267v51.2C332.8,92.16,331.093,93.867,328.533,93.867z
	 M145.067,85.333h179.2V42.667H276.48c-1.707,0-3.413-1.707-4.267-3.413c-3.413-17.92-19.627-30.72-37.547-30.72
	c-17.92,0-34.133,12.8-37.547,30.72c0,1.707-2.56,3.413-4.267,3.413h-47.787V85.333z M234.667,59.733c-6.827,0-12.8-5.973-12.8-12.8
	s5.973-12.8,12.8-12.8c6.827,0,12.8,5.973,12.8,12.8S241.493,59.733,234.667,59.733z M234.667,42.667
	c-2.56,0-4.267,1.707-4.267,4.267c0,2.56,1.707,4.267,4.267,4.267c2.56,0,4.267-1.707,4.267-4.267
	C238.933,44.373,237.227,42.667,234.667,42.667z"/>
<g>
</g>
<g>
</g>
<g>
</g>
<g>
</g>
<g>
</g>
<g>
</g>
<g>
</g>
<g>
</g>
<g>
</g>
<g>
</g>
<g>
</g>
<g>
</g>
<g>
</g>
<g>
</g>
<g>
</g>
</svg>
