<?xml version="1.0" encoding="iso-8859-1"?>
<!-- Generator: Adobe Illustrator 19.0.0, SVG Export Plug-In . SVG Version: 6.00 Build 0)  -->
<svg version="1.1" id="Layer_1" xmlns="http://www.w3.org/2000/svg" xmlns:xlink="http://www.w3.org/1999/xlink" x="0px" y="0px"
	 viewBox="0 0 512 512" style="enable-background:new 0 0 512 512;" xml:space="preserve">
<path style="fill:#996632;" d="M300.203,369.336c0,3.181-0.216,6.326-0.65,9.434c-28.281-8.585-58.473-8.585-86.753,0
	c0-3.108-0.216-6.253-0.65-9.434C240.595,359.029,271.756,359.029,300.203,369.336z"/>
<circle style="fill:#E0CBB5;" cx="379.854" cy="379.011" r="41.282"/>
<g>
	<path style="fill:#FFF8EF;" d="M388.11,345.983c-22.799,0-41.282,18.483-41.282,41.282c0,8.932,2.897,17.623,8.256,24.769
		c18.239,13.68,44.114,9.983,57.794-8.257c11.008-14.677,11.008-34.86,0-49.537C405.733,348.88,397.042,345.983,388.11,345.983z"/>
	<circle style="fill:#FFF8EF;" cx="132.163" cy="379.011" r="41.282"/>
</g>
<path style="fill:#E0CBB5;" d="M99.142,387.264c0-22.799,18.483-41.282,41.282-41.282c8.932,0,17.623,2.897,24.769,8.257
	c-13.68-18.239-39.554-21.935-57.794-8.257c-18.239,13.68-21.935,39.554-8.257,57.794c2.347,3.13,5.127,5.91,8.257,8.257
	C102.04,404.887,99.142,396.196,99.142,387.264z"/>
<g>
	<path style="fill:#996632;" d="M437.647,379.008c0-31.918-25.875-57.794-57.794-57.794s-57.794,25.875-57.794,57.794
		s25.875,57.794,57.794,57.794l0,0C411.772,436.802,437.647,410.926,437.647,379.008z M379.854,304.702
		c41.038,0,74.306,33.268,74.306,74.306s-33.268,74.306-74.306,74.306s-74.306-33.268-74.306-74.306
		S338.816,304.702,379.854,304.702z"/>
	<path style="fill:#996632;" d="M189.961,379.008c0-31.918-25.875-57.794-57.794-57.794s-57.794,25.875-57.794,57.794
		s25.875,57.794,57.794,57.794l0,0C164.086,436.802,189.961,410.926,189.961,379.008z M206.473,379.008
		c0,41.038-33.268,74.306-74.306,74.306S57.86,420.046,57.86,379.008s33.268-74.306,74.306-74.306S206.473,337.97,206.473,379.008z"
		/>
</g>
<path style="fill:#875426;" d="M471.213,255.633H43.039l36.392-15.959c39.689-17.389,82.562-26.332,125.894-26.26h105.882
	c45.798,0.048,91.035,10.074,132.564,29.383L471.213,255.633z"/>
<path style="fill:#996632;" d="M222.211,221.859c-43.247-0.038-86.029,8.905-125.64,26.26l-16.887,7.515h390.347l-9.372-4.391
	c-41.528-19.309-86.766-29.336-132.564-29.383H222.211V221.859z"/>
<path style="fill:#875426;" d="M367.402,80.657v85.686H144.619V80.657c-0.042-13.155,10.59-23.855,23.745-23.895
	c2.258-0.007,4.504,0.307,6.673,0.932l78.659,22.964c1.513,0.425,3.114,0.425,4.627,0l78.659-22.449
	c12.64-3.646,25.843,3.646,29.489,16.286C367.051,76.498,367.363,78.571,367.402,80.657z"/>
<path style="fill:#996632;" d="M367.402,166.344V80.657c-0.011-1.996-0.27-3.981-0.771-5.913c-4.096-1.111-8.414-1.111-12.51,0
	l-78.659,23.05c-1.513,0.425-3.114,0.425-4.627,0l-78.659-22.793c-12.641-3.644-25.843,3.65-29.487,16.291
	c-0.61,2.113-0.923,4.302-0.932,6.502v49.441c-0.094,10.458,8.307,19.013,18.764,19.108c0.057,0.001,0.115,0.001,0.172,0.001
	L367.402,166.344L367.402,166.344z"/>
<g>
	<path style="fill:#42210B;" d="M421.135,379.008c0-22.799-18.483-41.282-41.282-41.282c-22.799,0-41.282,18.483-41.282,41.282
		s18.483,41.282,41.282,41.282C402.652,420.289,421.135,401.807,421.135,379.008z M379.854,321.215
		c31.918,0,57.794,25.875,57.794,57.794s-25.875,57.794-57.794,57.794s-57.794-25.875-57.794-57.794
		S347.936,321.215,379.854,321.215L379.854,321.215z"/>
	<path style="fill:#42210B;" d="M177.989,59.822c-12.18-3.512-24.9,3.517-28.412,15.697c-0.587,2.037-0.889,4.145-0.898,6.265
		v82.562h214.662V81.784c0.04-12.676-10.204-22.985-22.88-23.025c-2.175-0.007-4.34,0.296-6.43,0.898l-75.792,22.126
		c-1.458,0.408-3.001,0.408-4.459,0L177.989,59.822z M379.854,81.784v90.819c0,4.56-3.697,8.257-8.257,8.257H140.423
		c-4.56,0-8.257-3.697-8.257-8.257V81.784c-0.026-21.796,17.62-39.486,39.416-39.514c3.703-0.004,7.388,0.512,10.946,1.534
		l73.48,21.466L329.49,44.3c20.948-6.02,42.81,6.081,48.83,27.029C379.298,74.729,379.815,78.246,379.854,81.784z"/>
	<path style="fill:#42210B;" d="M189.961,379.008c0,31.918-25.875,57.794-57.794,57.794s-57.794-25.875-57.794-57.794
		s25.875-57.794,57.794-57.794S189.961,347.089,189.961,379.008L189.961,379.008z M173.448,379.008
		c0-22.799-18.483-41.282-41.282-41.282s-41.282,18.483-41.282,41.282s18.483,41.282,41.282,41.282S173.448,401.807,173.448,379.008
		z"/>
	<path style="fill:#42210B;" d="M310.006,197.371c47.205,0.074,93.829,10.413,136.64,30.301l60.518,28.236
		c4.15,1.89,5.981,6.786,4.091,10.936c-1.348,2.959-4.307,4.851-7.558,4.834H8.324c-4.559,0.038-8.286-3.629-8.324-8.189
		c-0.027-3.334,1.954-6.357,5.02-7.663l71.747-31.374c40.879-17.956,85.057-27.179,129.706-27.081H310.006z M466.875,255.165
		l-26.833-12.55c-40.734-18.939-85.115-28.745-130.036-28.732H206.473c-42.286-0.037-84.121,8.707-122.853,25.677l-35.832,15.604
		h419.087V255.165z"/>
	<path style="fill:#42210B;" d="M289.035,375.705c0-2.366,0.166-4.761,0.496-7.183c-21.757-7.925-45.613-7.925-67.371,0
		c0,2.421,0.166,4.816,0.496,7.183C244.29,369.102,267.402,369.102,289.035,375.705z M206.473,379.008
		c0-41.038-33.268-74.306-74.306-74.306S57.86,337.969,57.86,379.008s33.268,74.306,74.306,74.306S206.473,420.046,206.473,379.008z
		 M454.161,379.008c0-41.038-33.268-74.306-74.306-74.306s-74.306,33.268-74.306,74.306s33.268,74.306,74.306,74.306
		S454.161,420.046,454.161,379.008z M470.673,379.008c-0.227,50.157-41.071,90.634-91.228,90.407
		c-44.235-0.2-81.893-32.242-89.171-75.876c-22.097-8.254-46.43-8.254-68.527,0c-8.086,49.502-54.77,83.075-104.272,74.989
		c-49.502-8.086-83.075-54.77-74.989-104.272s54.77-83.075,104.272-74.989c34.08,5.567,62.053,29.979,72.182,62.99
		c24.093-8.178,50.212-8.178,74.306,0c15.092-47.833,66.104-74.374,113.937-59.283C444.774,304.836,470.422,339.591,470.673,379.008
		z"/>
</g>
<g>
</g>
<g>
</g>
<g>
</g>
<g>
</g>
<g>
</g>
<g>
</g>
<g>
</g>
<g>
</g>
<g>
</g>
<g>
</g>
<g>
</g>
<g>
</g>
<g>
</g>
<g>
</g>
<g>
</g>
</svg>
