<?xml version="1.0" encoding="iso-8859-1"?>
<!-- Generator: Adobe Illustrator 19.0.0, SVG Export Plug-In . SVG Version: 6.00 Build 0)  -->
<svg version="1.1" id="Layer_1" xmlns="http://www.w3.org/2000/svg" xmlns:xlink="http://www.w3.org/1999/xlink" x="0px" y="0px"
	 viewBox="0 0 512 512" style="enable-background:new 0 0 512 512;" xml:space="preserve">
<path style="fill:#FF835D;" d="M479.439,152.14H230.175c-9.301,0-16.842,7.541-16.842,16.842v249.263
	c0,9.301,7.541,16.842,16.842,16.842h249.263c9.301,0,16.842-7.541,16.842-16.842V168.982
	C496.281,159.681,488.74,152.14,479.439,152.14z"/>
<path style="fill:#FBB071;" d="M354.807,152.14H230.175c-9.301,0-16.842,7.541-16.842,16.842v249.263
	c0,9.301,7.541,16.842,16.842,16.842h124.632V152.14z"/>
<path style="fill:#CCCCCC;" d="M450.246,316.07c0-9.301-7.541-16.842-16.842-16.842H276.211c-9.301,0-16.842,7.541-16.842,16.842
	v55.018c0,9.301,7.541,16.842,16.842,16.842h157.193c9.301,0,16.842-7.541,16.842-16.842V316.07z"/>
<path style="fill:#E1E1E1;" d="M354.807,299.228h-78.596c-9.301,0-16.842,7.541-16.842,16.842v55.018
	c0,9.301,7.541,16.842,16.842,16.842h78.596V299.228z"/>
<path style="fill:#2C6991;" d="M23.579,435.088c-9.301,0-16.842-7.541-16.842-16.842V101.614c0-9.301,7.541-16.842,16.842-16.842
	s16.842,7.541,16.842,16.842v316.632C40.421,427.547,32.88,435.088,23.579,435.088z"/>
<path style="fill:#528FB3;" d="M23.579,435.088c-9.301,0-16.842-7.541-16.842-16.842V101.614c0-9.301,7.541-16.842,16.842-16.842
	V435.088z"/>
<path style="fill:#CCCCCC;" d="M450.246,216.14c0-9.301-7.541-16.842-16.842-16.842H276.211c-9.301,0-16.842,7.541-16.842,16.842
	v55.018c0,9.301,7.541,16.842,16.842,16.842h157.193c9.301,0,16.842-7.541,16.842-16.842V216.14z"/>
<path style="fill:#E1E1E1;" d="M354.807,199.298h-78.596c-9.301,0-16.842,7.541-16.842,16.842v55.018
	c0,9.301,7.541,16.842,16.842,16.842h78.596V199.298z"/>
<path style="fill:#FF835D;" d="M478.316,76.912H33.684C15.111,76.912,0,92.023,0,110.596v59.509
	c0,18.573,15.111,33.684,33.684,33.684h444.632c18.573,0,33.684-15.111,33.684-33.684v-59.509
	C512,92.023,496.889,76.912,478.316,76.912z"/>
<path style="fill:#FBB071;" d="M232.421,76.912H33.684C15.111,76.912,0,92.023,0,110.596v59.509
	c0,18.573,15.111,33.684,33.684,33.684h198.737V76.912z"/>
<path style="fill:#C34A48;" d="M0,156.632v13.474c0,18.573,15.111,33.684,33.684,33.684h444.632
	c18.573,0,33.684-15.111,33.684-33.684v-13.474H0z"/>
<path style="fill:#FB5858;" d="M0,156.632v13.474c0,18.573,15.111,33.684,33.684,33.684h198.737v-47.158H0z"/>
<circle style="fill:#ABA8AB;" cx="354.807" cy="243.649" r="19.491"/>
<path style="fill:#CCCCCC;" d="M354.807,263.14c-10.764,0-19.491-8.726-19.491-19.491s8.726-19.491,19.491-19.491V263.14z"/>
<circle style="fill:#ABA8AB;" cx="354.807" cy="343.579" r="19.491"/>
<path style="fill:#CCCCCC;" d="M354.807,363.07c-10.764,0-19.491-8.726-19.491-19.491s8.726-19.491,19.491-19.491V363.07z"/>
<g>
</g>
<g>
</g>
<g>
</g>
<g>
</g>
<g>
</g>
<g>
</g>
<g>
</g>
<g>
</g>
<g>
</g>
<g>
</g>
<g>
</g>
<g>
</g>
<g>
</g>
<g>
</g>
<g>
</g>
</svg>
